<svg width="165" height="55" viewBox="0 0 165 55" fill="none" xmlns="http://www.w3.org/2000/svg">
<path d="M63.1236 41.1662C67.3796 41.1662 69.7796 37.3582 69.7796 33.0382C69.7796 28.7182 67.3796 24.9102 63.1236 24.9102C61.4596 24.9102 59.8276 25.3582 58.6436 26.7982V18.7662H54.7076V40.8462H58.6436V39.2782C59.7316 40.6222 61.4276 41.1662 63.1236 41.1662ZM62.1636 37.6462C59.6356 37.6462 58.4516 35.6622 58.4516 33.0382C58.4516 30.4142 59.6356 28.3662 62.1636 28.3662C64.7236 28.3662 65.9396 30.4462 65.9396 33.0382C65.9396 35.6622 64.7236 37.6462 62.1636 37.6462ZM79.5481 41.0382C82.1401 41.0382 84.2201 40.3022 86.0441 38.3502L83.4201 36.0462C82.3001 37.1982 81.2121 37.4862 79.5161 37.4862C77.2441 37.4862 76.0281 36.2062 75.7721 34.2862H86.4921C86.4921 34.2862 86.6201 33.8062 86.6201 33.1022C86.6201 29.0702 84.9561 25.0382 79.2601 25.0382C74.1721 25.0382 71.7401 29.0382 71.7401 33.1342C71.7401 37.2942 74.3321 41.0382 79.5481 41.0382ZM75.7721 31.5342C76.0921 29.6462 77.1481 28.2382 79.2601 28.2382C81.5321 28.2382 82.6201 29.4222 82.8761 31.5342H75.7721ZM89.8326 40.8462H93.6726V32.2702C93.6726 30.1902 94.8886 28.4942 96.9366 28.4942C98.9206 28.4942 99.4326 29.9982 99.4326 31.8862V40.8462H103.305V32.2702C103.305 30.1902 104.521 28.4942 106.569 28.4942C108.553 28.4942 109.097 30.0302 109.097 31.9502V40.8462H112.969V31.4702C112.969 28.2062 111.241 24.9742 107.177 24.9742C105.225 24.9742 103.241 25.7422 102.025 27.3422C101.001 25.8062 99.5606 24.9422 97.5446 24.9422C96.2006 24.9422 94.6966 25.4542 93.6726 26.8622V25.2302H89.8326V40.8462ZM116.926 40.8462H130.334V37.1022H120.894V18.7662H116.926V40.8462ZM132.702 22.3182H136.702V18.7982H132.702V22.3182ZM132.83 40.8462H136.606V25.2302H132.83V40.8462ZM149.686 41.1662C153.942 41.1662 156.342 37.3582 156.342 33.0382C156.342 28.7182 153.942 24.9102 149.686 24.9102C148.022 24.9102 146.39 25.3582 145.206 26.7982V18.7662H141.27V40.8462H145.206V39.2782C146.294 40.6222 147.99 41.1662 149.686 41.1662ZM148.726 37.6462C146.198 37.6462 145.014 35.6622 145.014 33.0382C145.014 30.4142 146.198 28.3662 148.726 28.3662C151.286 28.3662 152.502 30.4462 152.502 33.0382C152.502 35.6622 151.286 37.6462 148.726 37.6462Z" fill="#292B2F"/>
<rect opacity="0.5" width="13.75" height="20.625" transform="matrix(0.866025 -0.5 -2.20305e-08 -1 11.9097 41.2539)" fill="#FB7400"/>
<path opacity="0.5" d="M23.7691 34.3789L35.6769 41.2539L35.6769 20.6289L23.7691 13.7539L23.7691 34.3789Z" fill="#FB7400"/>
<rect opacity="0.5" width="13.75" height="13.75" transform="matrix(0.866025 0.5 -0.866025 0.5 23.8174 34.3789)" fill="#E04732"/>
<g opacity="0.5">
<rect width="13.75" height="20.625" transform="matrix(0.866025 0.5 -2.20305e-08 1 11.9097 20.6289)" fill="#FB7400"/>
<path d="M23.7691 27.5039L35.6769 20.6289L35.6769 41.2539L23.7691 48.1289L23.7691 27.5039Z" fill="#FB7400"/>
</g>
<rect opacity="0.5" width="13.75" height="20.625" transform="matrix(0.866025 -0.5 -2.20305e-08 -1 11.9097 41.2539)" fill="#FB7400"/>
<path opacity="0.5" d="M23.7691 34.3789L35.6769 41.2539L35.6769 20.6289L23.7691 13.7539L23.7691 34.3789Z" fill="#FB7400"/>
<rect opacity="0.5" width="13.75" height="13.75" transform="matrix(0.866025 0.5 -0.866025 0.5 23.8174 34.3789)" fill="#E04732"/>
<g opacity="0.5">
<rect width="13.75" height="20.625" transform="matrix(0.866025 0.5 -2.20305e-08 1 11.9097 20.6289)" fill="#FB7400"/>
<path d="M23.7691 27.5039L35.6769 20.6289L35.6769 41.2539L23.7691 48.1289L23.7691 27.5039Z" fill="#FB7400"/>
</g>
<g opacity="0.3">
<rect width="13.75" height="41.25" transform="matrix(0.866025 0.5 -2.20305e-08 1 11.9038 -7.62939e-06)" fill="#0642FF"/>
<rect width="13.75" height="41.25" transform="matrix(0.866025 -0.5 2.20305e-08 1 0 6.875)" fill="#0642FF"/>
</g>
<g opacity="0.3">
<rect width="13.75" height="41.25" transform="matrix(0.866025 -0.5 2.20305e-08 1 11.9072 13.75)" fill="#9F28FF"/>
<rect width="13.75" height="41.25" transform="matrix(0.866025 0.5 -2.20305e-08 1 0 6.875)" fill="#0642FF"/>
</g>
<g opacity="0.3">
<rect width="13.75" height="41.25" transform="matrix(0.866025 0.5 -2.20305e-08 1 11.9038 -7.62939e-06)" fill="#0642FF"/>
<rect width="13.75" height="41.25" transform="matrix(0.866025 -0.5 2.20305e-08 1 0 6.875)" fill="#0642FF"/>
</g>
<g opacity="0.3">
<rect width="13.75" height="41.25" transform="matrix(0.866025 -0.5 2.20305e-08 1 11.9072 13.75)" fill="#9F28FF"/>
<rect width="13.75" height="41.25" transform="matrix(0.866025 0.5 -2.20305e-08 1 0 6.875)" fill="#0642FF"/>
</g>
</svg>
